{"title":"Invaders.From.Mars.1953.HQ.720p.x264.AC3.[FrOnkY]","uid":12007729,"size":1879572122,"categoryP":"video","categoryS":"hd___movies","magnet":"?xt=urn:btih:e27e20a22f1df07d318d42e243e013cfc4c181e9&amp;dn=Invaders.From.Mars.1953.HQ.720p.x264.AC3.%5BFrOnkY%5D&amp;tr=udp%3A%2F%2Ftracker.openbittorrent.com%3A80&amp;tr=udp%3A%2F%2Fopen.demonii.com%3A1337&amp;tr=udp%3A%2F%2Ftracker.coppersurfer.tk%3A6969&amp;tr=udp%3A%2F%2Fexodus.desync.com%3A6969","seeders":0,"leechers":0,"uploader":"HDmEntEs","files":1,"time":1433973137,"description":"Invaders.From.Mars.1953.HQ.720p.x264.AC3.[FrOnkY].mkv\n\n\nFormat                                   : Matroska\nFormat version                           : Version 4 / Version 2\nFile size                                : 1.75 GiB\nDuration                                 : 1h 18mn\nOverall bit rate                         : 3 199 Kbps\nWriting application                      : mkvmerge v6.9.1 ('Blue Panther') 32bit\nWriting library                          : libebml v1.3.0 + libmatroska v1.4.1\nAttachements                             : InvadersFromMars.jpg\n\nVideo\nID                                       : 1\nFormat                                   : AVC\nFormat/Info                              : Advanced Video Codec\nFormat profile                           : High L4.1\nFormat settings, CABAC                   : Yes\nFormat settings, ReFrames                : 12 frames\nCodec ID                                 : V_MPEG4/ISO/AVC\nDuration                                 : 1h 18mn\nBit rate                                 : 3 003 Kbps\nWidth                                    : 952 pixels\nHeight                                   : 720 pixels\nDisplay aspect ratio                     : 4:3\nFrame rate mode                          : Constant\nFrame rate                               : 23.976 fps\nColor space                              : YUV\nChroma subsampling                       : 4:2:0\nBit depth                                : 8 bits\nScan type                                : Progressive\nBits/(Pixel*Frame)                       : 0.183\nStream size                              : 1.61 GiB (92%)\nWriting library                          : x264 core 142 r2491 24e4fed\nLanguage                                 : English\nDefault                                  : Yes\nForced                                   : No\n\nAudio\nID                                       : 2\nFormat                                   : AC-3\nFormat/Info                              : Audio Coding 3\nMode extension                           : CM (complete main)\nFormat settings, Endianness              : Big\nCodec ID                                 : A_AC3\nDuration                                 : 1h 18mn\nBit rate mode                            : Constant\nBit rate                                 : 192 Kbps\nChannel(s)                               : 2 channels\nChannel positions                        : Front: L R\nSampling rate                            : 48.0 KHz\nBit depth                                : 16 bits\nStream size                              : 108 MiB (6%)\nLanguage                                 : English\nDefault                                  : Yes\nForced                                   : No\n\nText #1\nID                                       : 3\nFormat                                   : UTF-8\nCodec ID                                 : S_TEXT/UTF8\nCodec ID/Info                            : UTF-8 Plain Text\nLanguage                                 : Spanish\nDefault                                  : Yes\nForced                                   : No\n\nText #2\nID                                       : 4\nFormat                                   : UTF-8\nCodec ID                                 : S_TEXT/UTF8\nCodec ID/Info                            : UTF-8 Plain Text\nLanguage                                 : French\nDefault                                  : No\nForced                                   : No\n\nText #3\nID                                       : 5\nFormat                                   : UTF-8\nCodec ID                                 : S_TEXT/UTF8\nCodec ID/Info                            : UTF-8 Plain Text\nLanguage                                 : Portuguese\nDefault                                  : No\nForced                                   : No\n\nMenu\n00:00:00.000                             : en:Chapter 01\n00:04:00.444                             : en:Chapter 02\n00:06:45.333                             : en:Chapter 03\n00:10:34.222                             : en:Chapter 04\n00:15:17.666                             : en:Chapter 05\n00:17:10.111                             : en:Chapter 06\n00:21:16.333                             : en:Chapter 07\n00:26:41.222                             : en:Chapter 08\n00:33:13.111                             : en:Chapter 09\n00:37:26.666                             : en:Chapter 10\n00:41:44.777                             : en:Chapter 11\n00:50:23.000                             : en:Chapter 12\n00:53:42.333                             : en:Chapter 13\n00:57:48.555                             : en:Chapter 14\n01:01:12.333                             : en:Chapter 15\n01:04:55.999                             : en:Chapter 16\n01:07:10.111                             : en:Chapter 17\n01:10:17.222                             : en:Chapter 18\n01:14:10.444                             : en:Chapter 19\n01:16:34.888                             : en:Chapter 20\n\n\nSD - HQ\n &lt;a href=&quot;\nhttp://i.imgur.com/eFdlzL1.png&quot; rel=&quot;nofollow&quot; target=&quot;_NEW&quot;&gt;\nhttp://i.imgur.com/eFdlzL1.png&lt;/a&gt; &lt;a href=&quot;\nhttp://i.imgur.com/rNpXaPt.jpg&quot; rel=&quot;nofollow&quot; target=&quot;_NEW&quot;&gt;\nhttp://i.imgur.com/rNpXaPt.jpg&lt;/a&gt;","torrent":{"xt":"urn:btih:e27e20a22f1df07d318d42e243e013cfc4c181e9","amp;dn":"Invaders.From.Mars.1953.HQ.720p.x264.AC3.%5BFrOnkY%5D","amp;tr":["udp%3A%2F%2Ftracker.openbittorrent.com%3A80","udp%3A%2F%2Fopen.demonii.com%3A1337","udp%3A%2F%2Ftracker.coppersurfer.tk%3A6969","udp%3A%2F%2Fexodus.desync.com%3A6969"],"infoHash":"e27e20a22f1df07d318d42e243e013cfc4c181e9","infoHashBuffer":{"type":"Buffer","data":[226,126,32,162,47,29,240,125,49,141,66,226,67,224,19,207,196,193,129,233]},"announce":[],"urlList":[]}}